<svg width="160" height="48" viewBox="0 0 160 48" xmlns="http://www.w3.org/2000/svg">
  <rect width="160" height="48" rx="8" fill="#000"/>
  <path
    d="M32 28c-2-3-4-6-4-9 0-4 3-7 7-7 2 0 3 1 4 1s2-1 4-1c3 0 6 2 7 5-1 1-3 3-3 6 0 4 4 6 4 6s-3 7-7 7c-2 0-4-2-5-2s-3 2-5 2c-3 0-6-4-7-8z"
    fill="#fff"
  />
  <text x="60" y="18" fill="#fff" font-size="10" font-family="Arial, Helvetica, sans-serif">
    Download on the
  </text>
  <text x="60" y="34" fill="#fff" font-size="16" font-weight="bold" font-family="Arial, Helvetica, sans-serif">
    App Store
  </text>
</svg>
